<svg version="1.1" baseProfile="tiny" xmlns="http://www.w3.org/2000/svg" width="250" height="250"  x="8.6" y="131.7"><rect xmlns="http://www.w3.org/2000/svg" shape-rendering="optimizeSpeed" width="250" height="250" fill="#fff" x="0" y="0"/><rect shape-rendering="optimizeSpeed" fill="#000" x="0" y="0"  width="8.720689655172414" height="8.720689655172414"></rect><rect shape-rendering="optimizeSpeed" fill="#000" x="8.620689655172415" y="0"  width="8.720689655172414" height="8.720689655172414"></rect><rect shape-rendering="optimizeSpeed" fill="#000" x="17.24137931034483" y="0"  width="8.720689655172414" height="8.720689655172414"></rect><rect shape-rendering="optimizeSpeed" fill="#000" x="25.862068965517246" y="0"  width="8.720689655172414" height="8.720689655172414"></rect><rect shape-rendering="optimizeSpeed" fill="#000" x="34.48275862068966" y="0"  width="8.720689655172414" height="8.720689655172414"></rect><rect shape-rendering="optimizeSpeed" fill="#000" x="43.10344827586207" y="0"  width="8.720689655172414" height="8.720689655172414"></rect><rect shape-rendering="optimizeSpeed" fill="#000" x="51.72413793103449" y="0"  width="8.720689655172414" height="8.720689655172414"></rect><rect shape-rendering="optimizeSpeed" fill="#000" x="86.20689655172414" y="0"  width="8.720689655172414" height="8.720689655172414"></rect><rect shape-rendering="optimizeSpeed" fill="#000" x="94.82758620689656" y="0"  width="8.720689655172414" height="8.720689655172414"></rect><rect shape-rendering="optimizeSpeed" fill="#000" x="112.0689655172414" y="0"  width="8.720689655172414" height="8.720689655172414"></rect><rect shape-rendering="optimizeSpeed" fill="#000" x="120.68965517241381" y="0"  width="8.720689655172414" height="8.720689655172414"></rect><rect shape-rendering="optimizeSpeed" fill="#000" x="129.31034482758622" y="0"  width="8.720689655172414" height="8.720689655172414"></rect><rect shape-rendering="optimizeSpeed" fill="#000" x="146.55172413793105" y="0"  width="8.720689655172414" height="8.720689655172414"></rect><rect shape-rendering="optimizeSpeed" fill="#000" x="155.17241379310346" y="0"  width="8.720689655172414" height="8.720689655172414"></rect><rect shape-rendering="optimizeSpeed" fill="#000" x="163.79310344827587" y="0"  width="8.720689655172414" height="8.720689655172414"></rect><rect shape-rendering="optimizeSpeed" fill="#000" x="189.6551724137931" y="0"  width="8.720689655172414" height="8.720689655172414"></rect><rect shape-rendering="optimizeSpeed" fill="#000" x="198.27586206896552" y="0"  width="8.720689655172414" height="8.720689655172414"></rect><rect shape-rendering="optimizeSpeed" fill="#000" x="206.89655172413796" y="0"  width="8.720689655172414" height="8.720689655172414"></rect><rect shape-rendering="optimizeSpeed" fill="#000" x="215.51724137931038" y="0"  width="8.720689655172414" height="8.720689655172414"></rect><rect shape-rendering="optimizeSpeed" fill="#000" x="224.1379310344828" y="0"  width="8.720689655172414" height="8.720689655172414"></rect><rect shape-rendering="optimizeSpeed" fill="#000" x="232.7586206896552" y="0"  width="8.720689655172414" height="8.720689655172414"></rect><rect shape-rendering="optimizeSpeed" fill="#000" x="241.37931034482762" y="0"  width="8.720689655172414" height="8.720689655172414"></rect><rect shape-rendering="optimizeSpeed" fill="#000" x="0" y="8.620689655172415"  width="8.720689655172414" height="8.720689655172414"></rect><rect shape-rendering="optimizeSpeed" fill="#000" x="51.72413793103449" y="8.620689655172415"  width="8.720689655172414" height="8.720689655172414"></rect><rect shape-rendering="optimizeSpeed" fill="#000" x="68.96551724137932" y="8.620689655172415"  width="8.720689655172414" height="8.720689655172414"></rect><rect shape-rendering="optimizeSpeed" fill="#000" x="77.58620689655173" y="8.620689655172415"  width="8.720689655172414" height="8.720689655172414"></rect><rect shape-rendering="optimizeSpeed" fill="#000" x="86.20689655172414" y="8.620689655172415"  width="8.720689655172414" height="8.720689655172414"></rect><rect shape-rendering="optimizeSpeed" fill="#000" x="94.82758620689656" y="8.620689655172415"  width="8.720689655172414" height="8.720689655172414"></rect><rect shape-rendering="optimizeSpeed" fill="#000" x="129.31034482758622" y="8.620689655172415"  width="8.720689655172414" height="8.720689655172414"></rect><rect shape-rendering="optimizeSpeed" fill="#000" x="146.55172413793105" y="8.620689655172415"  width="8.720689655172414" height="8.720689655172414"></rect><rect shape-rendering="optimizeSpeed" fill="#000" x="189.6551724137931" y="8.620689655172415"  width="8.720689655172414" height="8.720689655172414"></rect><rect shape-rendering="optimizeSpeed" fill="#000" x="241.37931034482762" y="8.620689655172415"  width="8.720689655172414" height="8.720689655172414"></rect><rect shape-rendering="optimizeSpeed" fill="#000" x="0" y="17.24137931034483"  width="8.720689655172414" height="8.720689655172414"></rect><rect shape-rendering="optimizeSpeed" fill="#000" x="17.24137931034483" y="17.24137931034483"  width="8.720689655172414" height="8.720689655172414"></rect><rect shape-rendering="optimizeSpeed" fill="#000" x="25.862068965517246" y="17.24137931034483"  width="8.720689655172414" height="8.720689655172414"></rect><rect shape-rendering="optimizeSpeed" fill="#000" x="34.48275862068966" y="17.24137931034483"  width="8.720689655172414" height="8.720689655172414"></rect><rect shape-rendering="optimizeSpeed" fill="#000" x="51.72413793103449" y="17.24137931034483"  width="8.720689655172414" height="8.720689655172414"></rect><rect shape-rendering="optimizeSpeed" fill="#000" x="68.96551724137932" y="17.24137931034483"  width="8.720689655172414" height="8.720689655172414"></rect><rect shape-rendering="optimizeSpeed" fill="#000" x="129.31034482758622" y="17.24137931034483"  width="8.720689655172414" height="8.720689655172414"></rect><rect shape-rendering="optimizeSpeed" fill="#000" x="137.93103448275863" y="17.24137931034483"  width="8.720689655172414" height="8.720689655172414"></rect><rect shape-rendering="optimizeSpeed" fill="#000" x="146.55172413793105" y="17.24137931034483"  width="8.720689655172414" height="8.720689655172414"></rect><rect shape-rendering="optimizeSpeed" fill="#000" x="172.41379310344828" y="17.24137931034483"  width="8.720689655172414" height="8.720689655172414"></rect><rect shape-rendering="optimizeSpeed" fill="#000" x="189.6551724137931" y="17.24137931034483"  width="8.720689655172414" height="8.720689655172414"></rect><rect shape-rendering="optimizeSpeed" fill="#000" x="206.89655172413796" y="17.24137931034483"  width="8.720689655172414" height="8.720689655172414"></rect><rect shape-rendering="optimizeSpeed" fill="#000" x="215.51724137931038" y="17.24137931034483"  width="8.720689655172414" height="8.720689655172414"></rect><rect shape-rendering="optimizeSpeed" fill="#000" x="224.1379310344828" y="17.24137931034483"  width="8.720689655172414" height="8.720689655172414"></rect><rect shape-rendering="optimizeSpeed" fill="#000" x="241.37931034482762" y="17.24137931034483"  width="8.720689655172414" height="8.720689655172414"></rect><rect shape-rendering="optimizeSpeed" fill="#000" x="0" y="25.862068965517246"  width="8.720689655172414" height="8.720689655172414"></rect><rect shape-rendering="optimizeSpeed" fill="#000" x="17.24137931034483" y="25.862068965517246"  width="8.720689655172414" height="8.720689655172414"></rect><rect shape-rendering="optimizeSpeed" fill="#000" x="25.862068965517246" y="25.862068965517246"  width="8.720689655172414" height="8.720689655172414"></rect><rect shape-rendering="optimizeSpeed" fill="#000" x="34.48275862068966" y="25.862068965517246"  width="8.720689655172414" height="8.720689655172414"></rect><rect shape-rendering="optimizeSpeed" fill="#000" x="51.72413793103449" y="25.862068965517246"  width="8.720689655172414" height="8.720689655172414"></rect><rect shape-rendering="optimizeSpeed" fill="#000" x="86.20689655172414" y="25.862068965517246"  width="8.720689655172414" height="8.720689655172414"></rect><rect shape-rendering="optimizeSpeed" fill="#000" x="120.68965517241381" y="25.862068965517246"  width="8.720689655172414" height="8.720689655172414"></rect><rect shape-rendering="optimizeSpeed" fill="#000" x="129.31034482758622" y="25.862068965517246"  width="8.720689655172414" height="8.720689655172414"></rect><rect shape-rendering="optimizeSpeed" fill="#000" x="155.17241379310346" y="25.862068965517246"  width="8.720689655172414" height="8.720689655172414"></rect><rect shape-rendering="optimizeSpeed" fill="#000" x="163.79310344827587" y="25.862068965517246"  width="8.720689655172414" height="8.720689655172414"></rect><rect shape-rendering="optimizeSpeed" fill="#000" x="172.41379310344828" y="25.862068965517246"  width="8.720689655172414" height="8.720689655172414"></rect><rect shape-rendering="optimizeSpeed" fill="#000" x="189.6551724137931" y="25.862068965517246"  width="8.720689655172414" height="8.720689655172414"></rect><rect shape-rendering="optimizeSpeed" fill="#000" x="206.89655172413796" y="25.862068965517246"  width="8.720689655172414" height="8.720689655172414"></rect><rect shape-rendering="optimizeSpeed" fill="#000" x="215.51724137931038" y="25.862068965517246"  width="8.720689655172414" height="8.720689655172414"></rect><rect shape-rendering="optimizeSpeed" fill="#000" x="224.1379310344828" y="25.862068965517246"  width="8.720689655172414" height="8.720689655172414"></rect><rect shape-rendering="optimizeSpeed" fill="#000" x="241.37931034482762" y="25.862068965517246"  width="8.720689655172414" height="8.720689655172414"></rect><rect shape-rendering="optimizeSpeed" fill="#000" x="0" y="34.48275862068966"  width="8.720689655172414" height="8.720689655172414"></rect><rect shape-rendering="optimizeSpeed" fill="#000" x="17.24137931034483" y="34.48275862068966"  width="8.720689655172414" height="8.720689655172414"></rect><rect shape-rendering="optimizeSpeed" fill="#000" x="25.862068965517246" y="34.48275862068966"  width="8.720689655172414" height="8.720689655172414"></rect><rect shape-rendering="optimizeSpeed" fill="#000" x="34.48275862068966" y="34.48275862068966"  width="8.720689655172414" height="8.720689655172414"></rect><rect shape-rendering="optimizeSpeed" fill="#000" x="51.72413793103449" y="34.48275862068966"  width="8.720689655172414" height="8.720689655172414"></rect><rect shape-rendering="optimizeSpeed" fill="#000" x="68.96551724137932" y="34.48275862068966"  width="8.720689655172414" height="8.720689655172414"></rect><rect shape-rendering="optimizeSpeed" fill="#000" x="86.20689655172414" y="34.48275862068966"  width="8.720689655172414" height="8.720689655172414"></rect><rect shape-rendering="optimizeSpeed" fill="#000" x="94.82758620689656" y="34.48275862068966"  width="8.720689655172414" height="8.720689655172414"></rect><rect shape-rendering="optimizeSpeed" fill="#000" x="103.44827586206898" y="34.48275862068966"  width="8.720689655172414" height="8.720689655172414"></rect><rect shape-rendering="optimizeSpeed" fill="#000" x="112.0689655172414" y="34.48275862068966"  width="8.720689655172414" height="8.720689655172414"></rect><rect shape-rendering="optimizeSpeed" fill="#000" x="120.68965517241381" y="34.48275862068966"  width="8.720689655172414" height="8.720689655172414"></rect><rect shape-rendering="optimizeSpeed" fill="#000" x="129.31034482758622" y="34.48275862068966"  width="8.720689655172414" height="8.720689655172414"></rect><rect shape-rendering="optimizeSpeed" fill="#000" x="137.93103448275863" y="34.48275862068966"  width="8.720689655172414" height="8.720689655172414"></rect><rect shape-rendering="optimizeSpeed" fill="#000" x="146.55172413793105" y="34.48275862068966"  width="8.720689655172414" height="8.720689655172414"></rect><rect shape-rendering="optimizeSpeed" fill="#000" x="155.17241379310346" y="34.48275862068966"  width="8.720689655172414" height="8.720689655172414"></rect><rect shape-rendering="optimizeSpeed" fill="#000" x="189.6551724137931" y="34.48275862068966"  width="8.720689655172414" height="8.720689655172414"></rect><rect shape-rendering="optimizeSpeed" fill="#000" x="206.89655172413796" y="34.48275862068966"  width="8.720689655172414" height="8.720689655172414"></rect><rect shape-rendering="optimizeSpeed" fill="#000" x="215.51724137931038" y="34.48275862068966"  width="8.720689655172414" height="8.720689655172414"></rect><rect shape-rendering="optimizeSpeed" fill="#000" x="224.1379310344828" y="34.48275862068966"  width="8.720689655172414" height="8.720689655172414"></rect><rect shape-rendering="optimizeSpeed" fill="#000" x="241.37931034482762" y="34.48275862068966"  width="8.720689655172414" height="8.720689655172414"></rect><rect shape-rendering="optimizeSpeed" fill="#000" x="0" y="43.10344827586207"  width="8.720689655172414" height="8.720689655172414"></rect><rect shape-rendering="optimizeSpeed" fill="#000" x="51.72413793103449" y="43.10344827586207"  width="8.720689655172414" height="8.720689655172414"></rect><rect shape-rendering="optimizeSpeed" fill="#000" x="68.96551724137932" y="43.10344827586207"  width="8.720689655172414" height="8.720689655172414"></rect><rect shape-rendering="optimizeSpeed" fill="#000" x="77.58620689655173" y="43.10344827586207"  width="8.720689655172414" height="8.720689655172414"></rect><rect shape-rendering="optimizeSpeed" fill="#000" x="103.44827586206898" y="43.10344827586207"  width="8.720689655172414" height="8.720689655172414"></rect><rect shape-rendering="optimizeSpeed" fill="#000" x="129.31034482758622" y="43.10344827586207"  width="8.720689655172414" height="8.720689655172414"></rect><rect shape-rendering="optimizeSpeed" fill="#000" x="146.55172413793105" y="43.10344827586207"  width="8.720689655172414" height="8.720689655172414"></rect><rect shape-rendering="optimizeSpeed" fill="#000" x="155.17241379310346" y="43.10344827586207"  width="8.720689655172414" height="8.720689655172414"></rect><rect shape-rendering="optimizeSpeed" fill="#000" x="163.79310344827587" y="43.10344827586207"  width="8.720689655172414" height="8.720689655172414"></rect><rect shape-rendering="optimizeSpeed" fill="#000" x="172.41379310344828" y="43.10344827586207"  width="8.720689655172414" height="8.720689655172414"></rect><rect shape-rendering="optimizeSpeed" fill="#000" x="189.6551724137931" y="43.10344827586207"  width="8.720689655172414" height="8.720689655172414"></rect><rect shape-rendering="optimizeSpeed" fill="#000" x="241.37931034482762" y="43.10344827586207"  width="8.720689655172414" height="8.720689655172414"></rect><rect shape-rendering="optimizeSpeed" fill="#000" x="0" y="51.72413793103449"  width="8.720689655172414" height="8.720689655172414"></rect><rect shape-rendering="optimizeSpeed" fill="#000" x="8.620689655172415" y="51.72413793103449"  width="8.720689655172414" height="8.720689655172414"></rect><rect shape-rendering="optimizeSpeed" fill="#000" x="17.24137931034483" y="51.72413793103449"  width="8.720689655172414" height="8.720689655172414"></rect><rect shape-rendering="optimizeSpeed" fill="#000" x="25.862068965517246" y="51.72413793103449"  width="8.720689655172414" height="8.720689655172414"></rect><rect shape-rendering="optimizeSpeed" fill="#000" x="34.48275862068966" y="51.72413793103449"  width="8.720689655172414" height="8.720689655172414"></rect><rect shape-rendering="optimizeSpeed" fill="#000" x="43.10344827586207" y="51.72413793103449"  width="8.720689655172414" height="8.720689655172414"></rect><rect shape-rendering="optimizeSpeed" fill="#000" x="51.72413793103449" y="51.72413793103449"  width="8.720689655172414" height="8.720689655172414"></rect><rect shape-rendering="optimizeSpeed" fill="#000" x="68.96551724137932" y="51.72413793103449"  width="8.720689655172414" height="8.720689655172414"></rect><rect shape-rendering="optimizeSpeed" fill="#000" x="86.20689655172414" y="51.72413793103449"  width="8.720689655172414" height="8.720689655172414"></rect><rect shape-rendering="optimizeSpeed" fill="#000" x="103.44827586206898" y="51.72413793103449"  width="8.720689655172414" height="8.720689655172414"></rect><rect shape-rendering="optimizeSpeed" fill="#000" x="120.68965517241381" y="51.72413793103449"  width="8.720689655172414" height="8.720689655172414"></rect><rect shape-rendering="optimizeSpeed" fill="#000" x="137.93103448275863" y="51.72413793103449"  width="8.720689655172414" height="8.720689655172414"></rect><rect shape-rendering="optimizeSpeed" fill="#000" x="155.17241379310346" y="51.72413793103449"  width="8.720689655172414" height="8.720689655172414"></rect><rect shape-rendering="optimizeSpeed" fill="#000" x="172.41379310344828" y="51.72413793103449"  width="8.720689655172414" height="8.720689655172414"></rect><rect shape-rendering="optimizeSpeed" fill="#000" x="189.6551724137931" y="51.72413793103449"  width="8.720689655172414" height="8.720689655172414"></rect><rect shape-rendering="optimizeSpeed" fill="#000" x="198.27586206896552" y="51.72413793103449"  width="8.720689655172414" height="8.720689655172414"></rect><rect shape-rendering="optimizeSpeed" fill="#000" x="206.89655172413796" y="51.72413793103449"  width="8.720689655172414" height="8.720689655172414"></rect><rect shape-rendering="optimizeSpeed" fill="#000" x="215.51724137931038" y="51.72413793103449"  width="8.720689655172414" height="8.720689655172414"></rect><rect shape-rendering="optimizeSpeed" fill="#000" x="224.1379310344828" y="51.72413793103449"  width="8.720689655172414" height="8.720689655172414"></rect><rect shape-rendering="optimizeSpeed" fill="#000" x="232.7586206896552" y="51.72413793103449"  width="8.720689655172414" height="8.720689655172414"></rect><rect shape-rendering="optimizeSpeed" fill="#000" x="241.37931034482762" y="51.72413793103449"  width="8.720689655172414" height="8.720689655172414"></rect><rect shape-rendering="optimizeSpeed" fill="#000" x="68.96551724137932" y="60.344827586206904"  width="8.720689655172414" height="8.720689655172414"></rect><rect shape-rendering="optimizeSpeed" fill="#000" x="77.58620689655173" y="60.344827586206904"  width="8.720689655172414" height="8.720689655172414"></rect><rect shape-rendering="optimizeSpeed" fill="#000" x="86.20689655172414" y="60.344827586206904"  width="8.720689655172414" height="8.720689655172414"></rect><rect shape-rendering="optimizeSpeed" fill="#000" x="94.82758620689656" y="60.344827586206904"  width="8.720689655172414" height="8.720689655172414"></rect><rect shape-rendering="optimizeSpeed" fill="#000" x="120.68965517241381" y="60.344827586206904"  width="8.720689655172414" height="8.720689655172414"></rect><rect shape-rendering="optimizeSpeed" fill="#000" x="129.31034482758622" y="60.344827586206904"  width="8.720689655172414" height="8.720689655172414"></rect><rect shape-rendering="optimizeSpeed" fill="#000" x="146.55172413793105" y="60.344827586206904"  width="8.720689655172414" height="8.720689655172414"></rect><rect shape-rendering="optimizeSpeed" fill="#000" x="163.79310344827587" y="60.344827586206904"  width="8.720689655172414" height="8.720689655172414"></rect><rect shape-rendering="optimizeSpeed" fill="#000" x="0" y="68.96551724137932"  width="8.720689655172414" height="8.720689655172414"></rect><rect shape-rendering="optimizeSpeed" fill="#000" x="8.620689655172415" y="68.96551724137932"  width="8.720689655172414" height="8.720689655172414"></rect><rect shape-rendering="optimizeSpeed" fill="#000" x="25.862068965517246" y="68.96551724137932"  width="8.720689655172414" height="8.720689655172414"></rect><rect shape-rendering="optimizeSpeed" fill="#000" x="51.72413793103449" y="68.96551724137932"  width="8.720689655172414" height="8.720689655172414"></rect><rect shape-rendering="optimizeSpeed" fill="#000" x="60.344827586206904" y="68.96551724137932"  width="8.720689655172414" height="8.720689655172414"></rect><rect shape-rendering="optimizeSpeed" fill="#000" x="77.58620689655173" y="68.96551724137932"  width="8.720689655172414" height="8.720689655172414"></rect><rect shape-rendering="optimizeSpeed" fill="#000" x="112.0689655172414" y="68.96551724137932"  width="8.720689655172414" height="8.720689655172414"></rect><rect shape-rendering="optimizeSpeed" fill="#000" x="120.68965517241381" y="68.96551724137932"  width="8.720689655172414" height="8.720689655172414"></rect><rect shape-rendering="optimizeSpeed" fill="#000" x="155.17241379310346" y="68.96551724137932"  width="8.720689655172414" height="8.720689655172414"></rect><rect shape-rendering="optimizeSpeed" fill="#000" x="172.41379310344828" y="68.96551724137932"  width="8.720689655172414" height="8.720689655172414"></rect><rect shape-rendering="optimizeSpeed" fill="#000" x="189.6551724137931" y="68.96551724137932"  width="8.720689655172414" height="8.720689655172414"></rect><rect shape-rendering="optimizeSpeed" fill="#000" x="198.27586206896552" y="68.96551724137932"  width="8.720689655172414" height="8.720689655172414"></rect><rect shape-rendering="optimizeSpeed" fill="#000" x="206.89655172413796" y="68.96551724137932"  width="8.720689655172414" height="8.720689655172414"></rect><rect shape-rendering="optimizeSpeed" fill="#000" x="224.1379310344828" y="68.96551724137932"  width="8.720689655172414" height="8.720689655172414"></rect><rect shape-rendering="optimizeSpeed" fill="#000" x="232.7586206896552" y="68.96551724137932"  width="8.720689655172414" height="8.720689655172414"></rect><rect shape-rendering="optimizeSpeed" fill="#000" x="17.24137931034483" y="77.58620689655173"  width="8.720689655172414" height="8.720689655172414"></rect><rect shape-rendering="optimizeSpeed" fill="#000" x="25.862068965517246" y="77.58620689655173"  width="8.720689655172414" height="8.720689655172414"></rect><rect shape-rendering="optimizeSpeed" fill="#000" x="77.58620689655173" y="77.58620689655173"  width="8.720689655172414" height="8.720689655172414"></rect><rect shape-rendering="optimizeSpeed" fill="#000" x="86.20689655172414" y="77.58620689655173"  width="8.720689655172414" height="8.720689655172414"></rect><rect shape-rendering="optimizeSpeed" fill="#000" x="103.44827586206898" y="77.58620689655173"  width="8.720689655172414" height="8.720689655172414"></rect><rect shape-rendering="optimizeSpeed" fill="#000" x="112.0689655172414" y="77.58620689655173"  width="8.720689655172414" height="8.720689655172414"></rect><rect shape-rendering="optimizeSpeed" fill="#000" x="137.93103448275863" y="77.58620689655173"  width="8.720689655172414" height="8.720689655172414"></rect><rect shape-rendering="optimizeSpeed" fill="#000" x="146.55172413793105" y="77.58620689655173"  width="8.720689655172414" height="8.720689655172414"></rect><rect shape-rendering="optimizeSpeed" fill="#000" x="155.17241379310346" y="77.58620689655173"  width="8.720689655172414" height="8.720689655172414"></rect><rect shape-rendering="optimizeSpeed" fill="#000" x="172.41379310344828" y="77.58620689655173"  width="8.720689655172414" height="8.720689655172414"></rect><rect shape-rendering="optimizeSpeed" fill="#000" x="181.0344827586207" y="77.58620689655173"  width="8.720689655172414" height="8.720689655172414"></rect><rect shape-rendering="optimizeSpeed" fill="#000" x="189.6551724137931" y="77.58620689655173"  width="8.720689655172414" height="8.720689655172414"></rect><rect shape-rendering="optimizeSpeed" fill="#000" x="215.51724137931038" y="77.58620689655173"  width="8.720689655172414" height="8.720689655172414"></rect><rect shape-rendering="optimizeSpeed" fill="#000" x="241.37931034482762" y="77.58620689655173"  width="8.720689655172414" height="8.720689655172414"></rect><rect shape-rendering="optimizeSpeed" fill="#000" x="8.620689655172415" y="86.20689655172414"  width="8.720689655172414" height="8.720689655172414"></rect><rect shape-rendering="optimizeSpeed" fill="#000" x="25.862068965517246" y="86.20689655172414"  width="8.720689655172414" height="8.720689655172414"></rect><rect shape-rendering="optimizeSpeed" fill="#000" x="34.48275862068966" y="86.20689655172414"  width="8.720689655172414" height="8.720689655172414"></rect><rect shape-rendering="optimizeSpeed" fill="#000" x="51.72413793103449" y="86.20689655172414"  width="8.720689655172414" height="8.720689655172414"></rect><rect shape-rendering="optimizeSpeed" fill="#000" x="103.44827586206898" y="86.20689655172414"  width="8.720689655172414" height="8.720689655172414"></rect><rect shape-rendering="optimizeSpeed" fill="#000" x="112.0689655172414" y="86.20689655172414"  width="8.720689655172414" height="8.720689655172414"></rect><rect shape-rendering="optimizeSpeed" fill="#000" x="120.68965517241381" y="86.20689655172414"  width="8.720689655172414" height="8.720689655172414"></rect><rect shape-rendering="optimizeSpeed" fill="#000" x="137.93103448275863" y="86.20689655172414"  width="8.720689655172414" height="8.720689655172414"></rect><rect shape-rendering="optimizeSpeed" fill="#000" x="163.79310344827587" y="86.20689655172414"  width="8.720689655172414" height="8.720689655172414"></rect><rect shape-rendering="optimizeSpeed" fill="#000" x="181.0344827586207" y="86.20689655172414"  width="8.720689655172414" height="8.720689655172414"></rect><rect shape-rendering="optimizeSpeed" fill="#000" x="206.89655172413796" y="86.20689655172414"  width="8.720689655172414" height="8.720689655172414"></rect><rect shape-rendering="optimizeSpeed" fill="#000" x="215.51724137931038" y="86.20689655172414"  width="8.720689655172414" height="8.720689655172414"></rect><rect shape-rendering="optimizeSpeed" fill="#000" x="224.1379310344828" y="86.20689655172414"  width="8.720689655172414" height="8.720689655172414"></rect><rect shape-rendering="optimizeSpeed" fill="#000" x="232.7586206896552" y="86.20689655172414"  width="8.720689655172414" height="8.720689655172414"></rect><rect shape-rendering="optimizeSpeed" fill="#000" x="0" y="94.82758620689656"  width="8.720689655172414" height="8.720689655172414"></rect><rect shape-rendering="optimizeSpeed" fill="#000" x="34.48275862068966" y="94.82758620689656"  width="8.720689655172414" height="8.720689655172414"></rect><rect shape-rendering="optimizeSpeed" fill="#000" x="43.10344827586207" y="94.82758620689656"  width="8.720689655172414" height="8.720689655172414"></rect><rect shape-rendering="optimizeSpeed" fill="#000" x="60.344827586206904" y="94.82758620689656"  width="8.720689655172414" height="8.720689655172414"></rect><rect shape-rendering="optimizeSpeed" fill="#000" x="68.96551724137932" y="94.82758620689656"  width="8.720689655172414" height="8.720689655172414"></rect><rect shape-rendering="optimizeSpeed" fill="#000" x="77.58620689655173" y="94.82758620689656"  width="8.720689655172414" height="8.720689655172414"></rect><rect shape-rendering="optimizeSpeed" fill="#000" x="94.82758620689656" y="94.82758620689656"  width="8.720689655172414" height="8.720689655172414"></rect><rect shape-rendering="optimizeSpeed" fill="#000" x="103.44827586206898" y="94.82758620689656"  width="8.720689655172414" height="8.720689655172414"></rect><rect shape-rendering="optimizeSpeed" fill="#000" x="112.0689655172414" y="94.82758620689656"  width="8.720689655172414" height="8.720689655172414"></rect><rect shape-rendering="optimizeSpeed" fill="#000" x="129.31034482758622" y="94.82758620689656"  width="8.720689655172414" height="8.720689655172414"></rect><rect shape-rendering="optimizeSpeed" fill="#000" x="163.79310344827587" y="94.82758620689656"  width="8.720689655172414" height="8.720689655172414"></rect><rect shape-rendering="optimizeSpeed" fill="#000" x="172.41379310344828" y="94.82758620689656"  width="8.720689655172414" height="8.720689655172414"></rect><rect shape-rendering="optimizeSpeed" fill="#000" x="181.0344827586207" y="94.82758620689656"  width="8.720689655172414" height="8.720689655172414"></rect><rect shape-rendering="optimizeSpeed" fill="#000" x="189.6551724137931" y="94.82758620689656"  width="8.720689655172414" height="8.720689655172414"></rect><rect shape-rendering="optimizeSpeed" fill="#000" x="198.27586206896552" y="94.82758620689656"  width="8.720689655172414" height="8.720689655172414"></rect><rect shape-rendering="optimizeSpeed" fill="#000" x="224.1379310344828" y="94.82758620689656"  width="8.720689655172414" height="8.720689655172414"></rect><rect shape-rendering="optimizeSpeed" fill="#000" x="232.7586206896552" y="94.82758620689656"  width="8.720689655172414" height="8.720689655172414"></rect><rect shape-rendering="optimizeSpeed" fill="#000" x="8.620689655172415" y="103.44827586206898"  width="8.720689655172414" height="8.720689655172414"></rect><rect shape-rendering="optimizeSpeed" fill="#000" x="17.24137931034483" y="103.44827586206898"  width="8.720689655172414" height="8.720689655172414"></rect><rect shape-rendering="optimizeSpeed" fill="#000" x="51.72413793103449" y="103.44827586206898"  width="8.720689655172414" height="8.720689655172414"></rect><rect shape-rendering="optimizeSpeed" fill="#000" x="60.344827586206904" y="103.44827586206898"  width="8.720689655172414" height="8.720689655172414"></rect><rect shape-rendering="optimizeSpeed" fill="#000" x="68.96551724137932" y="103.44827586206898"  width="8.720689655172414" height="8.720689655172414"></rect><rect shape-rendering="optimizeSpeed" fill="#000" x="86.20689655172414" y="103.44827586206898"  width="8.720689655172414" height="8.720689655172414"></rect><rect shape-rendering="optimizeSpeed" fill="#000" x="103.44827586206898" y="103.44827586206898"  width="8.720689655172414" height="8.720689655172414"></rect><rect shape-rendering="optimizeSpeed" fill="#000" x="112.0689655172414" y="103.44827586206898"  width="8.720689655172414" height="8.720689655172414"></rect><rect shape-rendering="optimizeSpeed" fill="#000" x="137.93103448275863" y="103.44827586206898"  width="8.720689655172414" height="8.720689655172414"></rect><rect shape-rendering="optimizeSpeed" fill="#000" x="146.55172413793105" y="103.44827586206898"  width="8.720689655172414" height="8.720689655172414"></rect><rect shape-rendering="optimizeSpeed" fill="#000" x="155.17241379310346" y="103.44827586206898"  width="8.720689655172414" height="8.720689655172414"></rect><rect shape-rendering="optimizeSpeed" fill="#000" x="172.41379310344828" y="103.44827586206898"  width="8.720689655172414" height="8.720689655172414"></rect><rect shape-rendering="optimizeSpeed" fill="#000" x="181.0344827586207" y="103.44827586206898"  width="8.720689655172414" height="8.720689655172414"></rect><rect shape-rendering="optimizeSpeed" fill="#000" x="189.6551724137931" y="103.44827586206898"  width="8.720689655172414" height="8.720689655172414"></rect><rect shape-rendering="optimizeSpeed" fill="#000" x="198.27586206896552" y="103.44827586206898"  width="8.720689655172414" height="8.720689655172414"></rect><rect shape-rendering="optimizeSpeed" fill="#000" x="215.51724137931038" y="103.44827586206898"  width="8.720689655172414" height="8.720689655172414"></rect><rect shape-rendering="optimizeSpeed" fill="#000" x="232.7586206896552" y="103.44827586206898"  width="8.720689655172414" height="8.720689655172414"></rect><rect shape-rendering="optimizeSpeed" fill="#000" x="241.37931034482762" y="103.44827586206898"  width="8.720689655172414" height="8.720689655172414"></rect><rect shape-rendering="optimizeSpeed" fill="#000" x="8.620689655172415" y="112.0689655172414"  width="8.720689655172414" height="8.720689655172414"></rect><rect shape-rendering="optimizeSpeed" fill="#000" x="17.24137931034483" y="112.0689655172414"  width="8.720689655172414" height="8.720689655172414"></rect><rect shape-rendering="optimizeSpeed" fill="#000" x="34.48275862068966" y="112.0689655172414"  width="8.720689655172414" height="8.720689655172414"></rect><rect shape-rendering="optimizeSpeed" fill="#000" x="86.20689655172414" y="112.0689655172414"  width="8.720689655172414" height="8.720689655172414"></rect><rect shape-rendering="optimizeSpeed" fill="#000" x="103.44827586206898" y="112.0689655172414"  width="8.720689655172414" height="8.720689655172414"></rect><rect shape-rendering="optimizeSpeed" fill="#000" x="112.0689655172414" y="112.0689655172414"  width="8.720689655172414" height="8.720689655172414"></rect><rect shape-rendering="optimizeSpeed" fill="#000" x="146.55172413793105" y="112.0689655172414"  width="8.720689655172414" height="8.720689655172414"></rect><rect shape-rendering="optimizeSpeed" fill="#000" x="155.17241379310346" y="112.0689655172414"  width="8.720689655172414" height="8.720689655172414"></rect><rect shape-rendering="optimizeSpeed" fill="#000" x="163.79310344827587" y="112.0689655172414"  width="8.720689655172414" height="8.720689655172414"></rect><rect shape-rendering="optimizeSpeed" fill="#000" x="172.41379310344828" y="112.0689655172414"  width="8.720689655172414" height="8.720689655172414"></rect><rect shape-rendering="optimizeSpeed" fill="#000" x="181.0344827586207" y="112.0689655172414"  width="8.720689655172414" height="8.720689655172414"></rect><rect shape-rendering="optimizeSpeed" fill="#000" x="17.24137931034483" y="120.68965517241381"  width="8.720689655172414" height="8.720689655172414"></rect><rect shape-rendering="optimizeSpeed" fill="#000" x="25.862068965517246" y="120.68965517241381"  width="8.720689655172414" height="8.720689655172414"></rect><rect shape-rendering="optimizeSpeed" fill="#000" x="34.48275862068966" y="120.68965517241381"  width="8.720689655172414" height="8.720689655172414"></rect><rect shape-rendering="optimizeSpeed" fill="#000" x="51.72413793103449" y="120.68965517241381"  width="8.720689655172414" height="8.720689655172414"></rect><rect shape-rendering="optimizeSpeed" fill="#000" x="60.344827586206904" y="120.68965517241381"  width="8.720689655172414" height="8.720689655172414"></rect><rect shape-rendering="optimizeSpeed" fill="#000" x="68.96551724137932" y="120.68965517241381"  width="8.720689655172414" height="8.720689655172414"></rect><rect shape-rendering="optimizeSpeed" fill="#000" x="94.82758620689656" y="120.68965517241381"  width="8.720689655172414" height="8.720689655172414"></rect><rect shape-rendering="optimizeSpeed" fill="#000" x="120.68965517241381" y="120.68965517241381"  width="8.720689655172414" height="8.720689655172414"></rect><rect shape-rendering="optimizeSpeed" fill="#000" x="146.55172413793105" y="120.68965517241381"  width="8.720689655172414" height="8.720689655172414"></rect><rect shape-rendering="optimizeSpeed" fill="#000" x="172.41379310344828" y="120.68965517241381"  width="8.720689655172414" height="8.720689655172414"></rect><rect shape-rendering="optimizeSpeed" fill="#000" x="181.0344827586207" y="120.68965517241381"  width="8.720689655172414" height="8.720689655172414"></rect><rect shape-rendering="optimizeSpeed" fill="#000" x="198.27586206896552" y="120.68965517241381"  width="8.720689655172414" height="8.720689655172414"></rect><rect shape-rendering="optimizeSpeed" fill="#000" x="215.51724137931038" y="120.68965517241381"  width="8.720689655172414" height="8.720689655172414"></rect><rect shape-rendering="optimizeSpeed" fill="#000" x="224.1379310344828" y="120.68965517241381"  width="8.720689655172414" height="8.720689655172414"></rect><rect shape-rendering="optimizeSpeed" fill="#000" x="232.7586206896552" y="120.68965517241381"  width="8.720689655172414" height="8.720689655172414"></rect><rect shape-rendering="optimizeSpeed" fill="#000" x="241.37931034482762" y="120.68965517241381"  width="8.720689655172414" height="8.720689655172414"></rect><rect shape-rendering="optimizeSpeed" fill="#000" x="25.862068965517246" y="129.31034482758622"  width="8.720689655172414" height="8.720689655172414"></rect><rect shape-rendering="optimizeSpeed" fill="#000" x="43.10344827586207" y="129.31034482758622"  width="8.720689655172414" height="8.720689655172414"></rect><rect shape-rendering="optimizeSpeed" fill="#000" x="60.344827586206904" y="129.31034482758622"  width="8.720689655172414" height="8.720689655172414"></rect><rect shape-rendering="optimizeSpeed" fill="#000" x="86.20689655172414" y="129.31034482758622"  width="8.720689655172414" height="8.720689655172414"></rect><rect shape-rendering="optimizeSpeed" fill="#000" x="94.82758620689656" y="129.31034482758622"  width="8.720689655172414" height="8.720689655172414"></rect><rect shape-rendering="optimizeSpeed" fill="#000" x="112.0689655172414" y="129.31034482758622"  width="8.720689655172414" height="8.720689655172414"></rect><rect shape-rendering="optimizeSpeed" fill="#000" x="120.68965517241381" y="129.31034482758622"  width="8.720689655172414" height="8.720689655172414"></rect><rect shape-rendering="optimizeSpeed" fill="#000" x="129.31034482758622" y="129.31034482758622"  width="8.720689655172414" height="8.720689655172414"></rect><rect shape-rendering="optimizeSpeed" fill="#000" x="137.93103448275863" y="129.31034482758622"  width="8.720689655172414" height="8.720689655172414"></rect><rect shape-rendering="optimizeSpeed" fill="#000" x="146.55172413793105" y="129.31034482758622"  width="8.720689655172414" height="8.720689655172414"></rect><rect shape-rendering="optimizeSpeed" fill="#000" x="163.79310344827587" y="129.31034482758622"  width="8.720689655172414" height="8.720689655172414"></rect><rect shape-rendering="optimizeSpeed" fill="#000" x="172.41379310344828" y="129.31034482758622"  width="8.720689655172414" height="8.720689655172414"></rect><rect shape-rendering="optimizeSpeed" fill="#000" x="189.6551724137931" y="129.31034482758622"  width="8.720689655172414" height="8.720689655172414"></rect><rect shape-rendering="optimizeSpeed" fill="#000" x="198.27586206896552" y="129.31034482758622"  width="8.720689655172414" height="8.720689655172414"></rect><rect shape-rendering="optimizeSpeed" fill="#000" x="215.51724137931038" y="129.31034482758622"  width="8.720689655172414" height="8.720689655172414"></rect><rect shape-rendering="optimizeSpeed" fill="#000" x="232.7586206896552" y="129.31034482758622"  width="8.720689655172414" height="8.720689655172414"></rect><rect shape-rendering="optimizeSpeed" fill="#000" x="8.620689655172415" y="137.93103448275863"  width="8.720689655172414" height="8.720689655172414"></rect><rect shape-rendering="optimizeSpeed" fill="#000" x="25.862068965517246" y="137.93103448275863"  width="8.720689655172414" height="8.720689655172414"></rect><rect shape-rendering="optimizeSpeed" fill="#000" x="51.72413793103449" y="137.93103448275863"  width="8.720689655172414" height="8.720689655172414"></rect><rect shape-rendering="optimizeSpeed" fill="#000" x="60.344827586206904" y="137.93103448275863"  width="8.720689655172414" height="8.720689655172414"></rect><rect shape-rendering="optimizeSpeed" fill="#000" x="86.20689655172414" y="137.93103448275863"  width="8.720689655172414" height="8.720689655172414"></rect><rect shape-rendering="optimizeSpeed" fill="#000" x="94.82758620689656" y="137.93103448275863"  width="8.720689655172414" height="8.720689655172414"></rect><rect shape-rendering="optimizeSpeed" fill="#000" x="103.44827586206898" y="137.93103448275863"  width="8.720689655172414" height="8.720689655172414"></rect><rect shape-rendering="optimizeSpeed" fill="#000" x="129.31034482758622" y="137.93103448275863"  width="8.720689655172414" height="8.720689655172414"></rect><rect shape-rendering="optimizeSpeed" fill="#000" x="146.55172413793105" y="137.93103448275863"  width="8.720689655172414" height="8.720689655172414"></rect><rect shape-rendering="optimizeSpeed" fill="#000" x="155.17241379310346" y="137.93103448275863"  width="8.720689655172414" height="8.720689655172414"></rect><rect shape-rendering="optimizeSpeed" fill="#000" x="172.41379310344828" y="137.93103448275863"  width="8.720689655172414" height="8.720689655172414"></rect><rect shape-rendering="optimizeSpeed" fill="#000" x="181.0344827586207" y="137.93103448275863"  width="8.720689655172414" height="8.720689655172414"></rect><rect shape-rendering="optimizeSpeed" fill="#000" x="198.27586206896552" y="137.93103448275863"  width="8.720689655172414" height="8.720689655172414"></rect><rect shape-rendering="optimizeSpeed" fill="#000" x="232.7586206896552" y="137.93103448275863"  width="8.720689655172414" height="8.720689655172414"></rect><rect shape-rendering="optimizeSpeed" fill="#000" x="8.620689655172415" y="146.55172413793105"  width="8.720689655172414" height="8.720689655172414"></rect><rect shape-rendering="optimizeSpeed" fill="#000" x="17.24137931034483" y="146.55172413793105"  width="8.720689655172414" height="8.720689655172414"></rect><rect shape-rendering="optimizeSpeed" fill="#000" x="25.862068965517246" y="146.55172413793105"  width="8.720689655172414" height="8.720689655172414"></rect><rect shape-rendering="optimizeSpeed" fill="#000" x="34.48275862068966" y="146.55172413793105"  width="8.720689655172414" height="8.720689655172414"></rect><rect shape-rendering="optimizeSpeed" fill="#000" x="77.58620689655173" y="146.55172413793105"  width="8.720689655172414" height="8.720689655172414"></rect><rect shape-rendering="optimizeSpeed" fill="#000" x="94.82758620689656" y="146.55172413793105"  width="8.720689655172414" height="8.720689655172414"></rect><rect shape-rendering="optimizeSpeed" fill="#000" x="103.44827586206898" y="146.55172413793105"  width="8.720689655172414" height="8.720689655172414"></rect><rect shape-rendering="optimizeSpeed" fill="#000" x="112.0689655172414" y="146.55172413793105"  width="8.720689655172414" height="8.720689655172414"></rect><rect shape-rendering="optimizeSpeed" fill="#000" x="120.68965517241381" y="146.55172413793105"  width="8.720689655172414" height="8.720689655172414"></rect><rect shape-rendering="optimizeSpeed" fill="#000" x="137.93103448275863" y="146.55172413793105"  width="8.720689655172414" height="8.720689655172414"></rect><rect shape-rendering="optimizeSpeed" fill="#000" x="155.17241379310346" y="146.55172413793105"  width="8.720689655172414" height="8.720689655172414"></rect><rect shape-rendering="optimizeSpeed" fill="#000" x="181.0344827586207" y="146.55172413793105"  width="8.720689655172414" height="8.720689655172414"></rect><rect shape-rendering="optimizeSpeed" fill="#000" x="189.6551724137931" y="146.55172413793105"  width="8.720689655172414" height="8.720689655172414"></rect><rect shape-rendering="optimizeSpeed" fill="#000" x="198.27586206896552" y="146.55172413793105"  width="8.720689655172414" height="8.720689655172414"></rect><rect shape-rendering="optimizeSpeed" fill="#000" x="215.51724137931038" y="146.55172413793105"  width="8.720689655172414" height="8.720689655172414"></rect><rect shape-rendering="optimizeSpeed" fill="#000" x="241.37931034482762" y="146.55172413793105"  width="8.720689655172414" height="8.720689655172414"></rect><rect shape-rendering="optimizeSpeed" fill="#000" x="0" y="155.17241379310346"  width="8.720689655172414" height="8.720689655172414"></rect><rect shape-rendering="optimizeSpeed" fill="#000" x="17.24137931034483" y="155.17241379310346"  width="8.720689655172414" height="8.720689655172414"></rect><rect shape-rendering="optimizeSpeed" fill="#000" x="34.48275862068966" y="155.17241379310346"  width="8.720689655172414" height="8.720689655172414"></rect><rect shape-rendering="optimizeSpeed" fill="#000" x="43.10344827586207" y="155.17241379310346"  width="8.720689655172414" height="8.720689655172414"></rect><rect shape-rendering="optimizeSpeed" fill="#000" x="51.72413793103449" y="155.17241379310346"  width="8.720689655172414" height="8.720689655172414"></rect><rect shape-rendering="optimizeSpeed" fill="#000" x="77.58620689655173" y="155.17241379310346"  width="8.720689655172414" height="8.720689655172414"></rect><rect shape-rendering="optimizeSpeed" fill="#000" x="86.20689655172414" y="155.17241379310346"  width="8.720689655172414" height="8.720689655172414"></rect><rect shape-rendering="optimizeSpeed" fill="#000" x="103.44827586206898" y="155.17241379310346"  width="8.720689655172414" height="8.720689655172414"></rect><rect shape-rendering="optimizeSpeed" fill="#000" x="146.55172413793105" y="155.17241379310346"  width="8.720689655172414" height="8.720689655172414"></rect><rect shape-rendering="optimizeSpeed" fill="#000" x="155.17241379310346" y="155.17241379310346"  width="8.720689655172414" height="8.720689655172414"></rect><rect shape-rendering="optimizeSpeed" fill="#000" x="181.0344827586207" y="155.17241379310346"  width="8.720689655172414" height="8.720689655172414"></rect><rect shape-rendering="optimizeSpeed" fill="#000" x="198.27586206896552" y="155.17241379310346"  width="8.720689655172414" height="8.720689655172414"></rect><rect shape-rendering="optimizeSpeed" fill="#000" x="232.7586206896552" y="155.17241379310346"  width="8.720689655172414" height="8.720689655172414"></rect><rect shape-rendering="optimizeSpeed" fill="#000" x="241.37931034482762" y="155.17241379310346"  width="8.720689655172414" height="8.720689655172414"></rect><rect shape-rendering="optimizeSpeed" fill="#000" x="34.48275862068966" y="163.79310344827587"  width="8.720689655172414" height="8.720689655172414"></rect><rect shape-rendering="optimizeSpeed" fill="#000" x="60.344827586206904" y="163.79310344827587"  width="8.720689655172414" height="8.720689655172414"></rect><rect shape-rendering="optimizeSpeed" fill="#000" x="77.58620689655173" y="163.79310344827587"  width="8.720689655172414" height="8.720689655172414"></rect><rect shape-rendering="optimizeSpeed" fill="#000" x="86.20689655172414" y="163.79310344827587"  width="8.720689655172414" height="8.720689655172414"></rect><rect shape-rendering="optimizeSpeed" fill="#000" x="94.82758620689656" y="163.79310344827587"  width="8.720689655172414" height="8.720689655172414"></rect><rect shape-rendering="optimizeSpeed" fill="#000" x="103.44827586206898" y="163.79310344827587"  width="8.720689655172414" height="8.720689655172414"></rect><rect shape-rendering="optimizeSpeed" fill="#000" x="120.68965517241381" y="163.79310344827587"  width="8.720689655172414" height="8.720689655172414"></rect><rect shape-rendering="optimizeSpeed" fill="#000" x="146.55172413793105" y="163.79310344827587"  width="8.720689655172414" height="8.720689655172414"></rect><rect shape-rendering="optimizeSpeed" fill="#000" x="172.41379310344828" y="163.79310344827587"  width="8.720689655172414" height="8.720689655172414"></rect><rect shape-rendering="optimizeSpeed" fill="#000" x="181.0344827586207" y="163.79310344827587"  width="8.720689655172414" height="8.720689655172414"></rect><rect shape-rendering="optimizeSpeed" fill="#000" x="189.6551724137931" y="163.79310344827587"  width="8.720689655172414" height="8.720689655172414"></rect><rect shape-rendering="optimizeSpeed" fill="#000" x="206.89655172413796" y="163.79310344827587"  width="8.720689655172414" height="8.720689655172414"></rect><rect shape-rendering="optimizeSpeed" fill="#000" x="232.7586206896552" y="163.79310344827587"  width="8.720689655172414" height="8.720689655172414"></rect><rect shape-rendering="optimizeSpeed" fill="#000" x="241.37931034482762" y="163.79310344827587"  width="8.720689655172414" height="8.720689655172414"></rect><rect shape-rendering="optimizeSpeed" fill="#000" x="0" y="172.41379310344828"  width="8.720689655172414" height="8.720689655172414"></rect><rect shape-rendering="optimizeSpeed" fill="#000" x="17.24137931034483" y="172.41379310344828"  width="8.720689655172414" height="8.720689655172414"></rect><rect shape-rendering="optimizeSpeed" fill="#000" x="25.862068965517246" y="172.41379310344828"  width="8.720689655172414" height="8.720689655172414"></rect><rect shape-rendering="optimizeSpeed" fill="#000" x="43.10344827586207" y="172.41379310344828"  width="8.720689655172414" height="8.720689655172414"></rect><rect shape-rendering="optimizeSpeed" fill="#000" x="51.72413793103449" y="172.41379310344828"  width="8.720689655172414" height="8.720689655172414"></rect><rect shape-rendering="optimizeSpeed" fill="#000" x="103.44827586206898" y="172.41379310344828"  width="8.720689655172414" height="8.720689655172414"></rect><rect shape-rendering="optimizeSpeed" fill="#000" x="112.0689655172414" y="172.41379310344828"  width="8.720689655172414" height="8.720689655172414"></rect><rect shape-rendering="optimizeSpeed" fill="#000" x="129.31034482758622" y="172.41379310344828"  width="8.720689655172414" height="8.720689655172414"></rect><rect shape-rendering="optimizeSpeed" fill="#000" x="137.93103448275863" y="172.41379310344828"  width="8.720689655172414" height="8.720689655172414"></rect><rect shape-rendering="optimizeSpeed" fill="#000" x="155.17241379310346" y="172.41379310344828"  width="8.720689655172414" height="8.720689655172414"></rect><rect shape-rendering="optimizeSpeed" fill="#000" x="163.79310344827587" y="172.41379310344828"  width="8.720689655172414" height="8.720689655172414"></rect><rect shape-rendering="optimizeSpeed" fill="#000" x="172.41379310344828" y="172.41379310344828"  width="8.720689655172414" height="8.720689655172414"></rect><rect shape-rendering="optimizeSpeed" fill="#000" x="181.0344827586207" y="172.41379310344828"  width="8.720689655172414" height="8.720689655172414"></rect><rect shape-rendering="optimizeSpeed" fill="#000" x="189.6551724137931" y="172.41379310344828"  width="8.720689655172414" height="8.720689655172414"></rect><rect shape-rendering="optimizeSpeed" fill="#000" x="198.27586206896552" y="172.41379310344828"  width="8.720689655172414" height="8.720689655172414"></rect><rect shape-rendering="optimizeSpeed" fill="#000" x="206.89655172413796" y="172.41379310344828"  width="8.720689655172414" height="8.720689655172414"></rect><rect shape-rendering="optimizeSpeed" fill="#000" x="224.1379310344828" y="172.41379310344828"  width="8.720689655172414" height="8.720689655172414"></rect><rect shape-rendering="optimizeSpeed" fill="#000" x="68.96551724137932" y="181.0344827586207"  width="8.720689655172414" height="8.720689655172414"></rect><rect shape-rendering="optimizeSpeed" fill="#000" x="77.58620689655173" y="181.0344827586207"  width="8.720689655172414" height="8.720689655172414"></rect><rect shape-rendering="optimizeSpeed" fill="#000" x="103.44827586206898" y="181.0344827586207"  width="8.720689655172414" height="8.720689655172414"></rect><rect shape-rendering="optimizeSpeed" fill="#000" x="137.93103448275863" y="181.0344827586207"  width="8.720689655172414" height="8.720689655172414"></rect><rect shape-rendering="optimizeSpeed" fill="#000" x="163.79310344827587" y="181.0344827586207"  width="8.720689655172414" height="8.720689655172414"></rect><rect shape-rendering="optimizeSpeed" fill="#000" x="172.41379310344828" y="181.0344827586207"  width="8.720689655172414" height="8.720689655172414"></rect><rect shape-rendering="optimizeSpeed" fill="#000" x="206.89655172413796" y="181.0344827586207"  width="8.720689655172414" height="8.720689655172414"></rect><rect shape-rendering="optimizeSpeed" fill="#000" x="224.1379310344828" y="181.0344827586207"  width="8.720689655172414" height="8.720689655172414"></rect><rect shape-rendering="optimizeSpeed" fill="#000" x="232.7586206896552" y="181.0344827586207"  width="8.720689655172414" height="8.720689655172414"></rect><rect shape-rendering="optimizeSpeed" fill="#000" x="241.37931034482762" y="181.0344827586207"  width="8.720689655172414" height="8.720689655172414"></rect><rect shape-rendering="optimizeSpeed" fill="#000" x="0" y="189.6551724137931"  width="8.720689655172414" height="8.720689655172414"></rect><rect shape-rendering="optimizeSpeed" fill="#000" x="8.620689655172415" y="189.6551724137931"  width="8.720689655172414" height="8.720689655172414"></rect><rect shape-rendering="optimizeSpeed" fill="#000" x="17.24137931034483" y="189.6551724137931"  width="8.720689655172414" height="8.720689655172414"></rect><rect shape-rendering="optimizeSpeed" fill="#000" x="25.862068965517246" y="189.6551724137931"  width="8.720689655172414" height="8.720689655172414"></rect><rect shape-rendering="optimizeSpeed" fill="#000" x="34.48275862068966" y="189.6551724137931"  width="8.720689655172414" height="8.720689655172414"></rect><rect shape-rendering="optimizeSpeed" fill="#000" x="43.10344827586207" y="189.6551724137931"  width="8.720689655172414" height="8.720689655172414"></rect><rect shape-rendering="optimizeSpeed" fill="#000" x="51.72413793103449" y="189.6551724137931"  width="8.720689655172414" height="8.720689655172414"></rect><rect shape-rendering="optimizeSpeed" fill="#000" x="68.96551724137932" y="189.6551724137931"  width="8.720689655172414" height="8.720689655172414"></rect><rect shape-rendering="optimizeSpeed" fill="#000" x="77.58620689655173" y="189.6551724137931"  width="8.720689655172414" height="8.720689655172414"></rect><rect shape-rendering="optimizeSpeed" fill="#000" x="86.20689655172414" y="189.6551724137931"  width="8.720689655172414" height="8.720689655172414"></rect><rect shape-rendering="optimizeSpeed" fill="#000" x="103.44827586206898" y="189.6551724137931"  width="8.720689655172414" height="8.720689655172414"></rect><rect shape-rendering="optimizeSpeed" fill="#000" x="172.41379310344828" y="189.6551724137931"  width="8.720689655172414" height="8.720689655172414"></rect><rect shape-rendering="optimizeSpeed" fill="#000" x="189.6551724137931" y="189.6551724137931"  width="8.720689655172414" height="8.720689655172414"></rect><rect shape-rendering="optimizeSpeed" fill="#000" x="206.89655172413796" y="189.6551724137931"  width="8.720689655172414" height="8.720689655172414"></rect><rect shape-rendering="optimizeSpeed" fill="#000" x="232.7586206896552" y="189.6551724137931"  width="8.720689655172414" height="8.720689655172414"></rect><rect shape-rendering="optimizeSpeed" fill="#000" x="0" y="198.27586206896552"  width="8.720689655172414" height="8.720689655172414"></rect><rect shape-rendering="optimizeSpeed" fill="#000" x="51.72413793103449" y="198.27586206896552"  width="8.720689655172414" height="8.720689655172414"></rect><rect shape-rendering="optimizeSpeed" fill="#000" x="77.58620689655173" y="198.27586206896552"  width="8.720689655172414" height="8.720689655172414"></rect><rect shape-rendering="optimizeSpeed" fill="#000" x="86.20689655172414" y="198.27586206896552"  width="8.720689655172414" height="8.720689655172414"></rect><rect shape-rendering="optimizeSpeed" fill="#000" x="103.44827586206898" y="198.27586206896552"  width="8.720689655172414" height="8.720689655172414"></rect><rect shape-rendering="optimizeSpeed" fill="#000" x="112.0689655172414" y="198.27586206896552"  width="8.720689655172414" height="8.720689655172414"></rect><rect shape-rendering="optimizeSpeed" fill="#000" x="120.68965517241381" y="198.27586206896552"  width="8.720689655172414" height="8.720689655172414"></rect><rect shape-rendering="optimizeSpeed" fill="#000" x="137.93103448275863" y="198.27586206896552"  width="8.720689655172414" height="8.720689655172414"></rect><rect shape-rendering="optimizeSpeed" fill="#000" x="155.17241379310346" y="198.27586206896552"  width="8.720689655172414" height="8.720689655172414"></rect><rect shape-rendering="optimizeSpeed" fill="#000" x="163.79310344827587" y="198.27586206896552"  width="8.720689655172414" height="8.720689655172414"></rect><rect shape-rendering="optimizeSpeed" fill="#000" x="172.41379310344828" y="198.27586206896552"  width="8.720689655172414" height="8.720689655172414"></rect><rect shape-rendering="optimizeSpeed" fill="#000" x="206.89655172413796" y="198.27586206896552"  width="8.720689655172414" height="8.720689655172414"></rect><rect shape-rendering="optimizeSpeed" fill="#000" x="215.51724137931038" y="198.27586206896552"  width="8.720689655172414" height="8.720689655172414"></rect><rect shape-rendering="optimizeSpeed" fill="#000" x="224.1379310344828" y="198.27586206896552"  width="8.720689655172414" height="8.720689655172414"></rect><rect shape-rendering="optimizeSpeed" fill="#000" x="0" y="206.89655172413796"  width="8.720689655172414" height="8.720689655172414"></rect><rect shape-rendering="optimizeSpeed" fill="#000" x="17.24137931034483" y="206.89655172413796"  width="8.720689655172414" height="8.720689655172414"></rect><rect shape-rendering="optimizeSpeed" fill="#000" x="25.862068965517246" y="206.89655172413796"  width="8.720689655172414" height="8.720689655172414"></rect><rect shape-rendering="optimizeSpeed" fill="#000" x="34.48275862068966" y="206.89655172413796"  width="8.720689655172414" height="8.720689655172414"></rect><rect shape-rendering="optimizeSpeed" fill="#000" x="51.72413793103449" y="206.89655172413796"  width="8.720689655172414" height="8.720689655172414"></rect><rect shape-rendering="optimizeSpeed" fill="#000" x="77.58620689655173" y="206.89655172413796"  width="8.720689655172414" height="8.720689655172414"></rect><rect shape-rendering="optimizeSpeed" fill="#000" x="112.0689655172414" y="206.89655172413796"  width="8.720689655172414" height="8.720689655172414"></rect><rect shape-rendering="optimizeSpeed" fill="#000" x="129.31034482758622" y="206.89655172413796"  width="8.720689655172414" height="8.720689655172414"></rect><rect shape-rendering="optimizeSpeed" fill="#000" x="137.93103448275863" y="206.89655172413796"  width="8.720689655172414" height="8.720689655172414"></rect><rect shape-rendering="optimizeSpeed" fill="#000" x="146.55172413793105" y="206.89655172413796"  width="8.720689655172414" height="8.720689655172414"></rect><rect shape-rendering="optimizeSpeed" fill="#000" x="172.41379310344828" y="206.89655172413796"  width="8.720689655172414" height="8.720689655172414"></rect><rect shape-rendering="optimizeSpeed" fill="#000" x="181.0344827586207" y="206.89655172413796"  width="8.720689655172414" height="8.720689655172414"></rect><rect shape-rendering="optimizeSpeed" fill="#000" x="189.6551724137931" y="206.89655172413796"  width="8.720689655172414" height="8.720689655172414"></rect><rect shape-rendering="optimizeSpeed" fill="#000" x="198.27586206896552" y="206.89655172413796"  width="8.720689655172414" height="8.720689655172414"></rect><rect shape-rendering="optimizeSpeed" fill="#000" x="206.89655172413796" y="206.89655172413796"  width="8.720689655172414" height="8.720689655172414"></rect><rect shape-rendering="optimizeSpeed" fill="#000" x="232.7586206896552" y="206.89655172413796"  width="8.720689655172414" height="8.720689655172414"></rect><rect shape-rendering="optimizeSpeed" fill="#000" x="241.37931034482762" y="206.89655172413796"  width="8.720689655172414" height="8.720689655172414"></rect><rect shape-rendering="optimizeSpeed" fill="#000" x="0" y="215.51724137931038"  width="8.720689655172414" height="8.720689655172414"></rect><rect shape-rendering="optimizeSpeed" fill="#000" x="17.24137931034483" y="215.51724137931038"  width="8.720689655172414" height="8.720689655172414"></rect><rect shape-rendering="optimizeSpeed" fill="#000" x="25.862068965517246" y="215.51724137931038"  width="8.720689655172414" height="8.720689655172414"></rect><rect shape-rendering="optimizeSpeed" fill="#000" x="34.48275862068966" y="215.51724137931038"  width="8.720689655172414" height="8.720689655172414"></rect><rect shape-rendering="optimizeSpeed" fill="#000" x="51.72413793103449" y="215.51724137931038"  width="8.720689655172414" height="8.720689655172414"></rect><rect shape-rendering="optimizeSpeed" fill="#000" x="68.96551724137932" y="215.51724137931038"  width="8.720689655172414" height="8.720689655172414"></rect><rect shape-rendering="optimizeSpeed" fill="#000" x="77.58620689655173" y="215.51724137931038"  width="8.720689655172414" height="8.720689655172414"></rect><rect shape-rendering="optimizeSpeed" fill="#000" x="86.20689655172414" y="215.51724137931038"  width="8.720689655172414" height="8.720689655172414"></rect><rect shape-rendering="optimizeSpeed" fill="#000" x="103.44827586206898" y="215.51724137931038"  width="8.720689655172414" height="8.720689655172414"></rect><rect shape-rendering="optimizeSpeed" fill="#000" x="112.0689655172414" y="215.51724137931038"  width="8.720689655172414" height="8.720689655172414"></rect><rect shape-rendering="optimizeSpeed" fill="#000" x="163.79310344827587" y="215.51724137931038"  width="8.720689655172414" height="8.720689655172414"></rect><rect shape-rendering="optimizeSpeed" fill="#000" x="172.41379310344828" y="215.51724137931038"  width="8.720689655172414" height="8.720689655172414"></rect><rect shape-rendering="optimizeSpeed" fill="#000" x="189.6551724137931" y="215.51724137931038"  width="8.720689655172414" height="8.720689655172414"></rect><rect shape-rendering="optimizeSpeed" fill="#000" x="198.27586206896552" y="215.51724137931038"  width="8.720689655172414" height="8.720689655172414"></rect><rect shape-rendering="optimizeSpeed" fill="#000" x="206.89655172413796" y="215.51724137931038"  width="8.720689655172414" height="8.720689655172414"></rect><rect shape-rendering="optimizeSpeed" fill="#000" x="215.51724137931038" y="215.51724137931038"  width="8.720689655172414" height="8.720689655172414"></rect><rect shape-rendering="optimizeSpeed" fill="#000" x="224.1379310344828" y="215.51724137931038"  width="8.720689655172414" height="8.720689655172414"></rect><rect shape-rendering="optimizeSpeed" fill="#000" x="0" y="224.1379310344828"  width="8.720689655172414" height="8.720689655172414"></rect><rect shape-rendering="optimizeSpeed" fill="#000" x="17.24137931034483" y="224.1379310344828"  width="8.720689655172414" height="8.720689655172414"></rect><rect shape-rendering="optimizeSpeed" fill="#000" x="25.862068965517246" y="224.1379310344828"  width="8.720689655172414" height="8.720689655172414"></rect><rect shape-rendering="optimizeSpeed" fill="#000" x="34.48275862068966" y="224.1379310344828"  width="8.720689655172414" height="8.720689655172414"></rect><rect shape-rendering="optimizeSpeed" fill="#000" x="51.72413793103449" y="224.1379310344828"  width="8.720689655172414" height="8.720689655172414"></rect><rect shape-rendering="optimizeSpeed" fill="#000" x="94.82758620689656" y="224.1379310344828"  width="8.720689655172414" height="8.720689655172414"></rect><rect shape-rendering="optimizeSpeed" fill="#000" x="112.0689655172414" y="224.1379310344828"  width="8.720689655172414" height="8.720689655172414"></rect><rect shape-rendering="optimizeSpeed" fill="#000" x="120.68965517241381" y="224.1379310344828"  width="8.720689655172414" height="8.720689655172414"></rect><rect shape-rendering="optimizeSpeed" fill="#000" x="146.55172413793105" y="224.1379310344828"  width="8.720689655172414" height="8.720689655172414"></rect><rect shape-rendering="optimizeSpeed" fill="#000" x="163.79310344827587" y="224.1379310344828"  width="8.720689655172414" height="8.720689655172414"></rect><rect shape-rendering="optimizeSpeed" fill="#000" x="172.41379310344828" y="224.1379310344828"  width="8.720689655172414" height="8.720689655172414"></rect><rect shape-rendering="optimizeSpeed" fill="#000" x="206.89655172413796" y="224.1379310344828"  width="8.720689655172414" height="8.720689655172414"></rect><rect shape-rendering="optimizeSpeed" fill="#000" x="215.51724137931038" y="224.1379310344828"  width="8.720689655172414" height="8.720689655172414"></rect><rect shape-rendering="optimizeSpeed" fill="#000" x="224.1379310344828" y="224.1379310344828"  width="8.720689655172414" height="8.720689655172414"></rect><rect shape-rendering="optimizeSpeed" fill="#000" x="241.37931034482762" y="224.1379310344828"  width="8.720689655172414" height="8.720689655172414"></rect><rect shape-rendering="optimizeSpeed" fill="#000" x="0" y="232.7586206896552"  width="8.720689655172414" height="8.720689655172414"></rect><rect shape-rendering="optimizeSpeed" fill="#000" x="51.72413793103449" y="232.7586206896552"  width="8.720689655172414" height="8.720689655172414"></rect><rect shape-rendering="optimizeSpeed" fill="#000" x="68.96551724137932" y="232.7586206896552"  width="8.720689655172414" height="8.720689655172414"></rect><rect shape-rendering="optimizeSpeed" fill="#000" x="94.82758620689656" y="232.7586206896552"  width="8.720689655172414" height="8.720689655172414"></rect><rect shape-rendering="optimizeSpeed" fill="#000" x="103.44827586206898" y="232.7586206896552"  width="8.720689655172414" height="8.720689655172414"></rect><rect shape-rendering="optimizeSpeed" fill="#000" x="112.0689655172414" y="232.7586206896552"  width="8.720689655172414" height="8.720689655172414"></rect><rect shape-rendering="optimizeSpeed" fill="#000" x="137.93103448275863" y="232.7586206896552"  width="8.720689655172414" height="8.720689655172414"></rect><rect shape-rendering="optimizeSpeed" fill="#000" x="146.55172413793105" y="232.7586206896552"  width="8.720689655172414" height="8.720689655172414"></rect><rect shape-rendering="optimizeSpeed" fill="#000" x="155.17241379310346" y="232.7586206896552"  width="8.720689655172414" height="8.720689655172414"></rect><rect shape-rendering="optimizeSpeed" fill="#000" x="163.79310344827587" y="232.7586206896552"  width="8.720689655172414" height="8.720689655172414"></rect><rect shape-rendering="optimizeSpeed" fill="#000" x="172.41379310344828" y="232.7586206896552"  width="8.720689655172414" height="8.720689655172414"></rect><rect shape-rendering="optimizeSpeed" fill="#000" x="181.0344827586207" y="232.7586206896552"  width="8.720689655172414" height="8.720689655172414"></rect><rect shape-rendering="optimizeSpeed" fill="#000" x="189.6551724137931" y="232.7586206896552"  width="8.720689655172414" height="8.720689655172414"></rect><rect shape-rendering="optimizeSpeed" fill="#000" x="198.27586206896552" y="232.7586206896552"  width="8.720689655172414" height="8.720689655172414"></rect><rect shape-rendering="optimizeSpeed" fill="#000" x="232.7586206896552" y="232.7586206896552"  width="8.720689655172414" height="8.720689655172414"></rect><rect shape-rendering="optimizeSpeed" fill="#000" x="0" y="241.37931034482762"  width="8.720689655172414" height="8.720689655172414"></rect><rect shape-rendering="optimizeSpeed" fill="#000" x="8.620689655172415" y="241.37931034482762"  width="8.720689655172414" height="8.720689655172414"></rect><rect shape-rendering="optimizeSpeed" fill="#000" x="17.24137931034483" y="241.37931034482762"  width="8.720689655172414" height="8.720689655172414"></rect><rect shape-rendering="optimizeSpeed" fill="#000" x="25.862068965517246" y="241.37931034482762"  width="8.720689655172414" height="8.720689655172414"></rect><rect shape-rendering="optimizeSpeed" fill="#000" x="34.48275862068966" y="241.37931034482762"  width="8.720689655172414" height="8.720689655172414"></rect><rect shape-rendering="optimizeSpeed" fill="#000" x="43.10344827586207" y="241.37931034482762"  width="8.720689655172414" height="8.720689655172414"></rect><rect shape-rendering="optimizeSpeed" fill="#000" x="51.72413793103449" y="241.37931034482762"  width="8.720689655172414" height="8.720689655172414"></rect><rect shape-rendering="optimizeSpeed" fill="#000" x="68.96551724137932" y="241.37931034482762"  width="8.720689655172414" height="8.720689655172414"></rect><rect shape-rendering="optimizeSpeed" fill="#000" x="77.58620689655173" y="241.37931034482762"  width="8.720689655172414" height="8.720689655172414"></rect><rect shape-rendering="optimizeSpeed" fill="#000" x="86.20689655172414" y="241.37931034482762"  width="8.720689655172414" height="8.720689655172414"></rect><rect shape-rendering="optimizeSpeed" fill="#000" x="103.44827586206898" y="241.37931034482762"  width="8.720689655172414" height="8.720689655172414"></rect><rect shape-rendering="optimizeSpeed" fill="#000" x="129.31034482758622" y="241.37931034482762"  width="8.720689655172414" height="8.720689655172414"></rect><rect shape-rendering="optimizeSpeed" fill="#000" x="146.55172413793105" y="241.37931034482762"  width="8.720689655172414" height="8.720689655172414"></rect><rect shape-rendering="optimizeSpeed" fill="#000" x="172.41379310344828" y="241.37931034482762"  width="8.720689655172414" height="8.720689655172414"></rect><rect shape-rendering="optimizeSpeed" fill="#000" x="181.0344827586207" y="241.37931034482762"  width="8.720689655172414" height="8.720689655172414"></rect><rect shape-rendering="optimizeSpeed" fill="#000" x="206.89655172413796" y="241.37931034482762"  width="8.720689655172414" height="8.720689655172414"></rect><rect shape-rendering="optimizeSpeed" fill="#000" x="232.7586206896552" y="241.37931034482762"  width="8.720689655172414" height="8.720689655172414"></rect></svg>